PathFileType	4	(X/Y/Z)	c:/Users/goper/Files/vsCode/490R/osim_files/C15/C15_SSWS_06.trc
DataRate	CameraRate	NumFrames	NumMarkers	Units                	OrigDataRate	OrigDataStartFrame	OrigNumFrames
250.00	250.00	9	36	mm	250.0	2001	2667
                Frame#	Time	LPSIS			LASIS			LTH1			LTH2			LTH3			LTH4			LLFE			LMFE			LSH1			LSH2			LSH3			LSH4			LLMAL			LMMAL			LCAL			LMTP5			LTOE			LMTP1			RPSIS			RASIS			RTH1			RTH2			RTH3			RTH4			RLFE			RMFE			RSH1			RSH2			RSH3			RSH4			RLMAL			RMMAL			RCAL			RMTP1			RTOE			RMTP5		
		X1	Y1	Z1	X2	Y2	Z2	X3	Y3	Z3	X4	Y4	Z4	X5	Y5	Z5	X6	Y6	Z6	X7	Y7	Z7	X8	Y8	Z8	X9	Y9	Z9	X10	Y10	Z10	X11	Y11	Z11	X12	Y12	Z12	X13	Y13	Z13	X14	Y14	Z14	X15	Y15	Z15	X16	Y16	Z16	X17	Y17	Z17	X18	Y18	Z18	X19	Y19	Z19	X20	Y20	Z20	X21	Y21	Z21	X22	Y22	Z22	X23	Y23	Z23	X24	Y24	Z24	X25	Y25	Z25	X26	Y26	Z26	X27	Y27	Z27	X28	Y28	Z28	X29	Y29	Z29	X30	Y30	Z30	X31	Y31	Z31	X32	Y32	Z32	X33	Y33	Z33	X34	Y34	Z34	X35	Y35	Z35	X36	Y36	Z36

2001	8.00000	-3068.64673	1038.29395	304.75540	-3249.61304	1016.10352	350.84506	-3208.30957	624.77698	414.84775	0.00000	0.00000	0.00000	-3256.96875	636.58472	404.37119	-3260.31958	592.00739	393.36432	-3226.70166	504.85193	374.51303	0.00000	0.00000	0.00000	-3165.48633	399.09399	395.42651	-3161.71094	353.20917	397.80722	-3224.20361	390.12387	385.15097	-3213.54077	346.14539	389.70319	-3150.95801	93.18063	330.80737	-3165.38892	121.99391	240.10533	0.00000	0.00000	0.00000	-3272.75439	50.62667	340.88242	-3324.69922	71.98017	273.77820	-3283.23242	44.96214	219.15482	0.00000	0.00000	0.00000	-3207.11597	1009.82275	105.10829	0.00000	0.00000	0.00000	0.00000	0.00000	0.00000	-3285.53662	657.50006	37.63585	-3292.86523	609.96320	38.61773	-3274.50928	514.15881	58.35154	-3284.06543	493.65103	181.99655	-3155.54688	493.86279	70.02335	-3122.65845	464.90839	70.53934	0.00000	0.00000	0.00000	-3153.19727	423.66370	55.69255	-2943.01074	272.62665	149.30566	-3004.84399	255.43906	218.62500	-2912.49072	310.31635	204.68825	-2993.46655	121.34949	210.58136	-3013.87402	105.26158	149.77922	-2944.64502	146.22189	106.10658
2002	8.00400	-3081.74927	1037.19971	307.99878	-3253.17700	1016.33313	350.97662	-3210.15430	624.88190	414.75714	0.00000	0.00000	0.00000	-3259.28882	636.33472	404.45490	-3262.12305	591.86871	393.35928	-3228.31763	504.87048	374.47958	-3216.41016	491.80429	253.78894	-3166.56421	399.14651	395.45837	-3162.29199	353.49472	397.14987	-3225.33374	390.03488	385.09521	-3215.11011	346.37292	390.08902	-3151.78931	93.42517	330.24673	-3165.51440	122.07967	240.08275	0.00000	0.00000	0.00000	-3272.47900	50.49059	340.78857	-3324.01489	72.04947	274.24438	-3283.21997	44.93161	219.14941	0.00000	0.00000	0.00000	-3210.88843	1010.54401	105.20846	0.00000	0.00000	0.00000	0.00000	0.00000	0.00000	-3291.72510	659.37427	37.25063	-3299.35181	611.83826	38.09249	-3281.51221	515.74487	57.85216	-3291.38794	495.44666	181.47189	0.00000	0.00000	0.00000	-3129.61987	465.62189	70.44671	0.00000	0.00000	0.00000	-3160.87329	424.46219	55.25472	0.00000	0.00000	0.00000	-3014.18555	254.86476	218.12802	-2920.71460	308.48532	204.64482	-3004.86548	120.77782	209.00127	-3025.69922	105.64596	147.99673	-2955.69336	145.80635	104.69324
2003	8.00800	-3075.74561	1038.84668	304.58420	-3256.76270	1016.47369	351.09793	-3211.97656	624.90674	414.68924	0.00000	0.00000	0.00000	-3261.26367	636.22485	404.39795	-3263.91528	591.69330	393.28638	-3229.56348	504.72156	374.46863	-3217.91675	491.79504	253.71506	-3167.67871	399.26453	395.48306	-3163.17603	353.61267	397.17044	-3226.38013	389.99414	384.99292	-3215.26001	346.21988	389.82159	-3151.22314	93.28736	330.89081	-3165.66870	122.22625	240.05040	0.00000	0.00000	0.00000	-3273.11279	50.58176	341.81323	-3324.85693	72.30838	274.75870	-3283.21997	44.91397	219.14981	0.00000	0.00000	0.00000	-3214.71021	1011.26685	105.27522	0.00000	0.00000	0.00000	0.00000	0.00000	0.00000	-3298.18457	661.52557	36.78739	-3305.74731	613.71356	37.58718	-3288.41968	517.25751	57.40609	-3298.44946	497.16049	180.94041	0.00000	0.00000	0.00000	-3137.11328	465.91245	70.45012	0.00000	0.00000	0.00000	-3168.25171	425.00165	54.91108	-2960.71655	270.68930	148.67995	-3023.48120	254.10890	217.48010	-2929.15552	306.41028	204.56133	-3016.54614	120.18555	207.38611	-3038.59277	106.48138	145.72049	-2966.86768	145.13478	103.33607
2004	8.01200	0.00000	0.00000	0.00000	-3260.21240	1016.56104	351.20819	-3213.82397	624.99567	414.56317	0.00000	0.00000	0.00000	-3263.29126	636.13483	404.33972	-3265.71631	591.60040	393.24515	-3232.29712	505.14606	374.89587	-3219.33350	491.72458	253.66864	-3168.72119	399.37589	395.49969	-3164.13623	353.71051	397.20935	-3227.44214	389.93799	384.98807	-3216.96313	346.35327	389.97037	-3151.34424	93.34779	330.82672	-3165.80981	122.34130	240.01736	0.00000	0.00000	0.00000	-3273.12036	50.54912	341.84412	-3324.20142	71.92462	274.37305	-3283.25293	44.90265	219.15129	0.00000	0.00000	0.00000	-3218.52759	1011.90540	105.35648	0.00000	0.00000	0.00000	0.00000	0.00000	0.00000	-3304.20190	663.29126	36.27307	-3312.16455	615.55878	37.08243	-3295.32715	518.80121	56.94353	-3305.47119	498.86755	180.42592	0.00000	0.00000	0.00000	-3144.62915	466.03284	70.40653	0.00000	0.00000	0.00000	-3181.44849	428.76166	51.45104	0.00000	0.00000	0.00000	-3033.03979	253.25819	216.78430	-2937.75049	304.19489	204.35138	-3028.53003	119.59304	205.73518	-3049.70142	106.05127	144.44112	-2978.02368	144.18906	102.03383
2005	8.01600	-3092.45728	1037.89941	307.75085	-3263.82251	1016.78491	351.29626	-3215.76831	625.18445	414.44666	0.00000	0.00000	0.00000	-3265.31909	636.06586	404.26236	-3267.45239	591.46857	393.20566	-3233.59619	505.12262	374.90494	-3220.71387	491.63583	253.63702	-3169.90698	399.67001	395.48679	-3165.12939	353.77985	397.71887	-3228.39575	389.91629	384.92004	-3217.81104	346.35959	389.94180	-3151.46143	93.43103	330.77509	-3165.95386	122.41193	239.97620	0.00000	0.00000	0.00000	-3273.14673	50.53916	341.87772	-3324.08496	71.68018	274.44708	-3283.25220	44.89788	219.15292	0.00000	0.00000	0.00000	-3222.39575	1012.55841	105.41518	0.00000	0.00000	0.00000	0.00000	0.00000	0.00000	-3310.26099	665.07202	35.81699	-3318.42920	617.39337	36.57450	-3302.24780	520.37506	56.49347	-3312.48511	500.64944	179.92361	0.00000	0.00000	0.00000	-3152.93188	466.03189	70.64653	0.00000	0.00000	0.00000	-3189.31909	429.54944	51.03105	0.00000	0.00000	0.00000	-3042.79028	252.27071	216.05200	-2946.24707	301.81140	204.16586	-3040.37524	118.66317	204.16298	-3061.83423	106.01166	142.73465	-2990.09033	144.30251	100.87588
2006	8.02000	0.00000	0.00000	0.00000	-3267.21997	1016.79297	351.37671	-3217.71826	625.31519	414.36475	0.00000	0.00000	0.00000	-3267.38037	636.01019	404.20901	-3269.49121	591.65930	393.02762	-3235.06909	505.10709	374.90112	-3222.27173	491.61435	253.61052	-3170.68042	399.72211	395.38666	-3166.31421	353.85205	397.79138	-3229.35352	389.83972	384.92783	-3218.58203	346.34543	389.88214	-3150.44897	93.20030	330.78644	-3166.12573	122.53266	239.95256	0.00000	0.00000	0.00000	-3273.93701	50.73685	342.09891	-3324.07764	71.53997	274.49142	-3283.27783	44.88140	219.14992	0.00000	0.00000	0.00000	-3226.16602	1013.16644	105.42194	0.00000	0.00000	0.00000	0.00000	0.00000	0.00000	-3316.19434	666.82715	35.34249	-3324.70581	619.19031	36.07059	-3309.15332	521.96991	56.00990	-3319.40454	502.36774	179.40858	0.00000	0.00000	0.00000	-3160.27515	465.98404	70.48980	0.00000	0.00000	0.00000	-3196.91699	430.12418	50.58157	-2988.15234	265.99176	147.18947	-3052.56494	251.15062	215.29958	-2955.39868	299.11771	203.57341	-3052.58008	117.86533	202.52797	-3073.82104	105.82450	140.95772	-3000.53809	141.99869	99.21312
2007	8.02400	-3101.03857	1037.45728	308.82654	-3270.73975	1016.90729	351.43533	-3219.48364	625.39679	414.27634	0.00000	0.00000	0.00000	-3269.33765	635.89087	404.12051	-3271.29126	591.53894	392.97568	-3236.30688	505.08389	374.91324	-3223.72461	491.49991	253.58791	-3171.58154	399.87582	395.31512	-3166.48511	354.08401	396.93555	-3230.17456	389.79077	384.91104	-3219.35913	346.33261	389.84598	-3150.50684	93.25542	330.77200	-3166.25952	122.61667	239.89262	0.00000	0.00000	0.00000	-3273.94678	50.74028	342.11874	-3324.13013	71.44342	274.53165	-3283.25684	44.86321	219.14383	0.00000	0.00000	0.00000	-3229.89941	1013.75476	105.46101	0.00000	0.00000	0.00000	0.00000	0.00000	0.00000	-3322.14209	668.57227	34.91328	-3330.95923	621.03412	35.63363	-3315.99194	523.52301	55.54051	-3326.18701	504.03198	178.91689	-3198.57446	496.49057	69.62456	-3167.06079	465.89114	69.96630	0.00000	0.00000	0.00000	-3204.70630	430.73642	50.10706	-2997.58203	264.02283	146.55502	-3062.41797	249.80434	214.46408	-2964.32202	296.27264	203.13736	-3064.66821	116.70016	201.00021	-3086.16235	105.47219	139.30222	-3012.06226	140.52919	97.88819
2008	8.02800	-3103.23608	1038.44482	307.34027	-3274.22876	1017.00391	351.48737	-3221.30640	625.42377	414.18103	-3221.90137	580.39233	398.75082	-3270.99023	635.70978	403.89713	-3272.65283	591.04742	393.09039	-3237.56250	505.00732	374.82953	-3225.28931	491.42233	253.59898	-3172.39575	399.98352	395.19415	-3169.12402	355.35263	398.20395	-3230.98560	389.72009	384.93164	-3219.01025	345.92044	389.71350	-3150.55249	93.29253	330.64056	-3166.42554	122.74423	239.82143	0.00000	0.00000	0.00000	-3273.46606	50.41527	341.17755	-3324.19189	71.35217	274.59076	-3283.29883	44.87051	219.14557	0.00000	0.00000	0.00000	-3233.66602	1014.29675	105.45541	0.00000	0.00000	0.00000	0.00000	0.00000	0.00000	-3328.03442	670.26782	34.46514	-3337.20996	622.82867	35.20684	-3322.85156	525.08759	55.04673	-3335.44434	506.93533	179.28012	-3205.60254	496.77853	69.45774	-3174.49072	465.71207	69.69136	0.00000	0.00000	0.00000	-3212.23145	431.20377	49.61474	0.00000	0.00000	0.00000	-3072.32935	248.26881	213.61020	-2973.38940	293.22647	202.65715	-3076.99536	115.52142	199.43694	-3098.80835	105.02708	137.78267	-3023.61279	138.79912	96.57773
2009	8.03200	0.00000	0.00000	0.00000	-3277.65674	1016.99866	351.53326	-3223.13794	625.46112	414.04501	-3223.55127	580.41986	398.65488	-3272.84863	635.54602	403.79654	-3274.78027	591.28357	392.92139	-3237.26367	504.24304	374.38049	-3226.80298	491.31140	253.59633	-3173.26465	400.12195	395.09219	-3169.84229	355.47076	398.12457	-3231.82324	389.68930	384.95309	-3219.38086	345.75513	389.55627	-3150.65332	93.38507	330.59134	-3166.62280	122.84303	239.73373	0.00000	0.00000	0.00000	-3273.96240	50.71946	342.15402	-3324.29370	71.29221	274.60770	-3283.32178	44.83138	219.12802	0.00000	0.00000	0.00000	-3237.48413	1014.77686	105.45457	0.00000	0.00000	0.00000	0.00000	0.00000	0.00000	-3333.84155	671.92841	34.03629	-3343.29883	624.57758	34.75672	-3329.51001	526.55188	54.63025	-3339.59863	507.32462	177.89769	0.00000	0.00000	0.00000	-3181.92749	465.54578	69.39197	0.00000	0.00000	0.00000	-3214.49634	427.31406	49.78312	0.00000	0.00000	0.00000	-3082.37915	246.61269	212.74568	-2981.90234	290.13699	202.04350	-3089.35425	114.21098	197.96286	-3111.36450	104.41811	136.20726	-3036.43213	137.94962	95.69357
